<?xml version="1.0" standalone="no"?>
<!DOCTYPE svg PUBLIC "-//W3C//DTD SVG 20010904//EN"
 "http://www.w3.org/TR/2001/REC-SVG-20010904/DTD/svg10.dtd">
<svg version="1.0" xmlns="http://www.w3.org/2000/svg"
 width="5282.000000pt" height="1163.000000pt" viewBox="0 0 5282.000000 1163.000000"
 preserveAspectRatio="xMidYMid meet">

<g transform="translate(0.000000,1163.000000) scale(0.100000,-0.100000)"
fill="#000000" stroke="none">
<path d="M32636 10718 c-3 -13 -80 -608 -171 -1323 -92 -715 -169 -1306 -171
-1314 -3 -9 -37 18 -97 75 -371 358 -838 544 -1432 570 -782 34 -1564 -272
-2120 -830 -483 -484 -771 -1102 -861 -1846 -34 -272 -24 -677 22 -945 76
-436 254 -843 514 -1170 140 -175 368 -376 575 -505 197 -122 491 -240 737
-294 234 -52 313 -60 618 -60 319 0 434 13 675 79 276 76 582 229 778 388 31
26 57 42 57 35 0 -7 -13 -97 -29 -201 l-28 -187 611 2 610 3 502 3730 c276
2052 505 3749 508 3773 l6 42 -650 0 -650 0 -4 -22z m-1661 -3196 c260 -56
458 -163 640 -346 55 -56 124 -137 153 -181 240 -361 316 -833 216 -1335 -125
-627 -523 -1120 -1055 -1308 -269 -95 -587 -111 -851 -43 -247 64 -426 168
-599 348 -341 354 -471 905 -353 1493 103 513 396 947 802 1187 176 104 401
179 622 207 80 10 337 -3 425 -22z"/>
<path d="M15640 8740 c-351 -34 -640 -114 -945 -265 -443 -218 -791 -526
-1071 -950 -105 -160 -272 -488 -262 -517 2 -4 64 -36 138 -71 316 -147 652
-361 921 -586 46 -39 86 -71 89 -71 4 0 12 28 19 62 34 165 125 372 235 533
79 117 244 286 351 363 168 119 391 216 607 262 138 30 354 37 497 16 406 -60
719 -281 898 -632 219 -429 212 -940 -18 -1383 -82 -160 -174 -285 -304 -416
-309 -312 -674 -475 -1061 -475 -273 0 -517 84 -742 257 -122 94 -263 244
-544 579 -310 372 -370 435 -533 565 -458 365 -958 615 -1475 739 l-135 32
-116 237 c-229 466 -421 701 -878 1075 -591 484 -1389 665 -2121 481 -220 -56
-492 -169 -694 -289 l-78 -46 6 32 c5 28 17 106 53 341 l6 37 -631 0 -630 0
-6 -27 c-3 -16 -71 -523 -151 -1128 -135 -1020 -147 -1104 -173 -1155 -38 -78
-277 -316 -399 -398 -84 -57 -259 -151 -308 -166 -20 -6 -12 62 172 1427 106
787 192 1435 193 1440 0 4 -283 7 -630 7 l-629 0 -6 -32 c-3 -18 -104 -757
-225 -1643 -121 -885 -227 -1648 -236 -1694 -61 -319 -242 -617 -485 -800 -93
-71 -193 -131 -217 -131 -9 0 -68 -16 -129 -35 -172 -52 -255 -67 -384 -67
-464 1 -783 244 -875 667 -11 54 -17 125 -17 220 0 124 23 319 206 1745 114
883 209 1615 211 1628 l3 22 -631 -2 -631 -3 -222 -1645 c-244 -1806 -253
-1893 -234 -2173 23 -342 87 -587 221 -846 199 -382 539 -649 978 -765 191
-51 287 -61 567 -61 284 1 363 10 570 65 355 94 635 277 882 575 34 41 40 46
37 25 -6 -36 -74 -533 -74 -542 0 -4 270 -8 600 -8 330 0 600 3 600 8 0 4 41
303 90 665 50 362 90 659 90 661 0 2 24 10 53 16 158 37 375 119 557 210 66
33 120 58 120 56 0 -7 -480 -3822 -483 -3844 l-4 -22 570 2 571 3 112 781 c62
429 135 929 163 1110 28 181 67 444 86 584 61 432 282 1904 340 2260 69 420
186 748 346 974 127 178 315 353 489 457 139 82 382 174 540 204 139 27 372
25 507 -3 254 -55 475 -166 698 -354 113 -95 131 -115 140 -155 6 -28 4 -33
-17 -37 -380 -73 -558 -130 -853 -276 -512 -252 -929 -637 -1159 -1071 -140
-264 -225 -520 -257 -772 -17 -140 -7 -424 20 -547 69 -313 198 -561 395 -755
282 -279 652 -415 1128 -415 255 0 426 26 648 97 143 46 395 172 520 260 123
87 354 317 456 455 296 398 539 941 694 1548 23 91 43 166 44 168 5 5 141 -40
222 -73 266 -110 482 -295 802 -688 42 -52 124 -153 181 -223 148 -182 371
-401 521 -513 449 -334 945 -512 1471 -528 290 -9 522 24 765 108 191 66 426
194 574 312 24 20 46 35 48 33 7 -7 -59 -497 -79 -586 -68 -301 -233 -571
-463 -756 -207 -167 -446 -270 -718 -310 -156 -23 -469 -15 -613 16 -452 96
-744 339 -845 701 -11 39 -21 73 -22 74 -5 4 -1182 -376 -1190 -384 -10 -9 23
-144 62 -256 44 -124 147 -321 228 -434 83 -116 255 -298 371 -390 334 -266
753 -441 1231 -512 135 -21 192 -24 445 -24 310 1 417 10 660 60 914 188 1648
774 1989 1588 62 146 121 334 151 480 21 102 745 5425 745 5479 0 17 -28 18
-608 18 l-608 0 -38 -287 c-20 -159 -39 -293 -41 -300 -2 -6 -53 36 -112 96
-292 290 -639 470 -1090 565 -247 52 -590 76 -803 56z m-4085 -3051 c39 -5
111 -21 160 -34 l90 -24 -195 5 c-176 5 -392 -5 -477 -22 -30 -6 -33 -10 -43
-63 -26 -128 -102 -425 -131 -508 -39 -110 -105 -242 -222 -447 -82 -144 -98
-165 -166 -224 -102 -87 -212 -157 -291 -185 -93 -32 -260 -31 -342 1 -120 48
-201 158 -234 314 -26 125 4 289 77 427 137 256 489 530 829 645 344 116 661
154 945 115z"/>
<path d="M25005 8720 c-589 -49 -1122 -255 -1540 -595 -124 -101 -307 -290
-397 -411 -123 -166 -231 -356 -212 -373 5 -4 214 -129 464 -276 250 -148 469
-277 487 -287 l31 -19 33 58 c196 348 483 583 862 708 234 76 446 101 617 71
218 -38 377 -114 506 -241 165 -163 225 -349 194 -601 -11 -91 -16 -107 -34
-114 -12 -5 -397 -68 -856 -140 -905 -143 -985 -156 -1164 -201 -854 -214
-1407 -678 -1566 -1314 -42 -165 -54 -296 -47 -507 13 -405 130 -694 381 -944
238 -236 540 -375 966 -441 164 -26 626 -26 790 0 446 70 794 231 1122 520 65
56 68 58 63 30 -7 -36 -55 -426 -55 -441 0 -9 153 -12 609 -12 l609 0 6 42 c3
24 110 826 238 1783 231 1736 231 1740 232 1930 0 201 -8 270 -51 440 -181
701 -829 1208 -1688 1320 -149 19 -453 27 -600 15z m865 -3113 c0 -6 -7 -68
-15 -137 -66 -565 -374 -1031 -832 -1259 -424 -211 -963 -196 -1195 35 -100
98 -148 223 -148 384 0 373 292 641 805 740 214 41 1350 248 1368 249 9 1 17
-5 17 -12z"/>
<path d="M36430 8724 c-328 -29 -580 -86 -835 -190 -979 -400 -1661 -1350
-1780 -2478 -17 -167 -20 -505 -5 -657 37 -371 124 -687 275 -994 197 -401
473 -717 835 -955 216 -142 537 -276 800 -334 241 -53 325 -61 635 -61 303 0
371 6 607 51 736 142 1365 578 1683 1167 27 50 44 92 39 97 -12 11 -995 540
-1004 540 -3 0 -29 -33 -56 -72 -70 -104 -248 -284 -357 -361 -379 -270 -912
-347 -1347 -195 -473 166 -768 585 -816 1161 l-7 77 1911 0 1911 0 22 72 c67
227 94 430 93 708 -1 366 -53 662 -169 965 -313 815 -983 1327 -1886 1440
-121 15 -460 27 -549 19z m380 -1089 c349 -57 632 -260 780 -560 73 -148 108
-283 126 -477 l6 -78 -1250 0 -1251 0 35 103 c44 128 146 337 215 440 214 320
515 513 894 572 114 18 332 18 445 0z"/>
<path d="M22120 8663 c-265 -14 -534 -80 -731 -178 -215 -108 -443 -315 -585
-529 -21 -32 -40 -54 -42 -48 -2 6 17 158 42 339 26 180 46 336 46 346 0 16
-35 17 -598 17 l-597 0 -373 -2692 c-206 -1481 -376 -2701 -378 -2711 -5 -16
28 -17 638 -15 l643 3 191 1455 c106 800 204 1514 218 1586 49 255 156 526
278 709 29 43 91 119 138 169 184 194 388 307 665 368 77 18 138 21 418 25
180 3 327 6 327 8 0 2 36 259 80 572 44 312 80 571 80 576 0 6 -336 7 -460 0z"/>
<path d="M48525 7328 c-5 -23 -605 -4258 -605 -4271 0 -4 159 -7 354 -7 l354
0 6 28 c3 15 12 81 21 147 26 199 14 188 106 96 92 -93 207 -173 340 -235 170
-81 350 -116 594 -116 176 0 279 11 430 47 326 77 589 216 779 413 336 349
506 767 506 1246 0 300 -62 538 -211 809 -111 201 -237 344 -410 467 -244 173
-461 244 -779 255 -183 6 -288 -4 -440 -42 -172 -44 -268 -85 -394 -172 -43
-29 -80 -52 -81 -51 -1 2 40 316 91 698 51 382 94 698 94 703 0 4 -169 7 -375
7 l-375 0 -5 -22z m1513 -1871 c118 -34 180 -72 281 -175 130 -132 182 -225
233 -410 31 -112 31 -341 0 -464 -50 -203 -123 -337 -257 -472 -139 -141 -271
-225 -422 -268 -67 -20 -101 -23 -238 -23 -173 0 -265 17 -383 72 -64 30 -206
162 -257 239 -64 95 -126 295 -140 449 -9 92 10 255 41 363 50 174 159 357
285 479 110 106 288 195 444 223 75 13 350 4 413 -13z"/>
<path d="M41686 5223 c-164 -1160 -301 -2124 -305 -2143 l-8 -35 359 3 c197 1
358 6 358 10 0 42 246 1817 260 1875 65 265 285 479 560 548 71 18 103 21 200
16 176 -8 269 -47 373 -156 101 -106 147 -247 133 -412 -3 -42 -60 -481 -126
-975 -66 -494 -120 -904 -120 -911 0 -10 78 -13 374 -13 l374 0 6 33 c3 17 65
457 138 977 131 936 133 947 132 1125 -1 210 -15 279 -89 433 -151 314 -398
502 -734 557 -364 61 -807 -71 -1006 -298 -38 -44 -45 -48 -45 -29 0 25 187
1444 195 1480 l5 22 -367 0 -368 0 -299 -2107z"/>
<path d="M45010 6124 c0 -4 -61 -428 -136 -943 -123 -842 -137 -954 -141
-1111 -11 -381 66 -600 292 -826 82 -83 116 -109 183 -143 182 -92 357 -131
583 -131 155 0 270 17 410 60 170 52 285 128 394 259 32 39 60 69 62 67 2 -2
-5 -73 -16 -156 -12 -84 -21 -157 -21 -162 0 -4 159 -8 354 -8 l355 0 7 48 c4
26 100 717 213 1537 l207 1490 -375 3 c-206 1 -375 1 -376 0 -4 -4 -262 -1783
-269 -1853 -15 -144 -77 -258 -202 -373 -105 -98 -210 -167 -292 -193 -84 -27
-289 -37 -374 -20 -176 37 -320 173 -354 335 -34 162 -35 152 110 1155 75 514
136 943 136 953 0 17 -19 18 -375 18 -206 0 -375 -3 -375 -6z"/>
</g>
</svg>
